<svg width="206" height="24" viewBox="0 0 206 24" fill="none" xmlns="http://www.w3.org/2000/svg">
<path d="M22.996 3.344V23H18.208V11.212L13.812 23H9.948L5.524 11.184V23H0.736V3.344H6.392L11.908 16.952L17.368 3.344H22.996ZM28.8471 5.752C28.0071 5.752 27.3165 5.50933 26.7751 5.024C26.2525 4.52 25.9911 3.904 25.9911 3.176C25.9911 2.42933 26.2525 1.81333 26.7751 1.328C27.3165 0.823998 28.0071 0.571998 28.8471 0.571998C29.6685 0.571998 30.3405 0.823998 30.8631 1.328C31.4045 1.81333 31.6751 2.42933 31.6751 3.176C31.6751 3.904 31.4045 4.52 30.8631 5.024C30.3405 5.50933 29.6685 5.752 28.8471 5.752ZM31.2271 7.376V23H26.4391V7.376H31.2271ZM44.2169 7.208C46.0463 7.208 47.5023 7.80533 48.5849 9C49.6863 10.176 50.2369 11.8 50.2369 13.872V23H45.4769V14.516C45.4769 13.4707 45.2063 12.6587 44.6649 12.08C44.1236 11.5013 43.3956 11.212 42.4809 11.212C41.5663 11.212 40.8383 11.5013 40.2969 12.08C39.7556 12.6587 39.4849 13.4707 39.4849 14.516V23H34.6969V7.376H39.4849V9.448C39.9703 8.75733 40.6236 8.216 41.4449 7.824C42.2663 7.41333 43.1903 7.208 44.2169 7.208ZM52.6121 15.16C52.6121 13.5547 52.9108 12.1453 53.5081 10.932C54.1241 9.71867 54.9548 8.78533 56.0001 8.132C57.0455 7.47867 58.2121 7.152 59.5001 7.152C60.5268 7.152 61.4601 7.36667 62.3001 7.796C63.1588 8.22533 63.8308 8.804 64.3161 9.532V2.28H69.1041V23H64.3161V20.76C63.8681 21.5067 63.2241 22.104 62.3841 22.552C61.5628 23 60.6015 23.224 59.5001 23.224C58.2121 23.224 57.0455 22.8973 56.0001 22.244C54.9548 21.572 54.1241 20.6293 53.5081 19.416C52.9108 18.184 52.6121 16.7653 52.6121 15.16ZM64.3161 15.188C64.3161 13.9933 63.9801 13.0507 63.3081 12.36C62.6548 11.6693 61.8521 11.324 60.9001 11.324C59.9481 11.324 59.1361 11.6693 58.4641 12.36C57.8108 13.032 57.4841 13.9653 57.4841 15.16C57.4841 16.3547 57.8108 17.3067 58.4641 18.016C59.1361 18.7067 59.9481 19.052 60.9001 19.052C61.8521 19.052 62.6548 18.7067 63.3081 18.016C63.9801 17.3253 64.3161 16.3827 64.3161 15.188ZM99.616 3.344L94.492 23H88.696L85.56 10.064L82.312 23H76.516L71.532 3.344H76.656L79.484 17.652L82.984 3.344H88.248L91.608 17.652L94.464 3.344H99.616ZM116.745 14.936C116.745 15.384 116.717 15.8507 116.661 16.336H105.825C105.9 17.3067 106.208 18.0533 106.749 18.576C107.309 19.08 107.991 19.332 108.793 19.332C109.988 19.332 110.819 18.828 111.285 17.82H116.381C116.12 18.8467 115.644 19.7707 114.953 20.592C114.281 21.4133 113.432 22.0573 112.405 22.524C111.379 22.9907 110.231 23.224 108.961 23.224C107.431 23.224 106.068 22.8973 104.873 22.244C103.679 21.5907 102.745 20.6573 102.073 19.444C101.401 18.2307 101.065 16.812 101.065 15.188C101.065 13.564 101.392 12.1453 102.045 10.932C102.717 9.71867 103.651 8.78533 104.845 8.132C106.04 7.47867 107.412 7.152 108.961 7.152C110.473 7.152 111.817 7.46933 112.993 8.104C114.169 8.73867 115.084 9.644 115.737 10.82C116.409 11.996 116.745 13.368 116.745 14.936ZM111.845 13.676C111.845 12.8547 111.565 12.2013 111.005 11.716C110.445 11.2307 109.745 10.988 108.905 10.988C108.103 10.988 107.421 11.2213 106.861 11.688C106.32 12.1547 105.984 12.8173 105.853 13.676H111.845ZM124.059 2.28V23H119.271V2.28H124.059ZM132.317 2.28V23H127.529V2.28H132.317ZM158.744 3.344V23H153.956V14.908H146.508V23H141.72V3.344H146.508V11.044H153.956V3.344H158.744ZM177.629 7.376V23H172.841V20.872C172.356 21.5627 171.693 22.1227 170.853 22.552C170.032 22.9627 169.117 23.168 168.109 23.168C166.914 23.168 165.86 22.9067 164.945 22.384C164.03 21.8427 163.321 21.068 162.817 20.06C162.313 19.052 162.061 17.8667 162.061 16.504V7.376H166.821V15.86C166.821 16.9053 167.092 17.7173 167.633 18.296C168.174 18.8747 168.902 19.164 169.817 19.164C170.75 19.164 171.488 18.8747 172.029 18.296C172.57 17.7173 172.841 16.9053 172.841 15.86V7.376H177.629ZM185.856 9.588C186.304 8.86 186.948 8.272 187.788 7.824C188.628 7.376 189.589 7.152 190.672 7.152C191.96 7.152 193.127 7.47867 194.172 8.132C195.217 8.78533 196.039 9.71867 196.636 10.932C197.252 12.1453 197.56 13.5547 197.56 15.16C197.56 16.7653 197.252 18.184 196.636 19.416C196.039 20.6293 195.217 21.572 194.172 22.244C193.127 22.8973 191.96 23.224 190.672 23.224C189.571 23.224 188.609 23.0093 187.788 22.58C186.967 22.132 186.323 21.544 185.856 20.816V23H181.068V2.28H185.856V9.588ZM192.688 15.16C192.688 13.9653 192.352 13.032 191.68 12.36C191.027 11.6693 190.215 11.324 189.244 11.324C188.292 11.324 187.48 11.6693 186.808 12.36C186.155 13.0507 185.828 13.9933 185.828 15.188C185.828 16.3827 186.155 17.3253 186.808 18.016C187.48 18.7067 188.292 19.052 189.244 19.052C190.196 19.052 191.008 18.7067 191.68 18.016C192.352 17.3067 192.688 16.3547 192.688 15.16ZM202.312 23.224C201.472 23.224 200.781 22.9813 200.24 22.496C199.717 21.992 199.456 21.376 199.456 20.648C199.456 19.9013 199.717 19.276 200.24 18.772C200.781 18.268 201.472 18.016 202.312 18.016C203.133 18.016 203.805 18.268 204.328 18.772C204.869 19.276 205.14 19.9013 205.14 20.648C205.14 21.376 204.869 21.992 204.328 22.496C203.805 22.9813 203.133 23.224 202.312 23.224Z" fill="#1E5542"/>
</svg>
